<svg width="458" height="458" xmlns="http://www.w3.org/2000/svg"><path fill="none" d="M-1-1h582v402H-1z"/><g><g fill="#fff" stroke="none"><path d="M376.925752 84.533004H84.074215c-12.190865 0-22.074236 10.53017-22.074236 23.518843v197.558285c0 12.988673 9.883371 23.518843 22.074236 23.518843h97.200221l32.33287 40.956498c4.194105 5.312907 10.377099 8.380548 16.893413 8.380548 6.516315 0 12.699308-3.066857 16.893413-8.379764l32.33287-40.956498h97.19875c12.191601 0 22.074236-10.53017 22.074236-23.518843V108.052631c0-12.989457-9.882636-23.519627-22.074236-23.519627zm0 221.077128h-107.47725l-38.948519 49.336262-38.947783-49.336262H84.074214V108.051847h292.851537v197.558285z"/><path d="M124.839443 175.053897h100.80568c6.095432 0 11.037118-5.265085 11.037118-11.759422s-4.941686-11.759422-11.037118-11.759422h-100.80568c-6.095432 0-11.037118 5.265085-11.037118 11.759422s4.941686 11.759422 11.037118 11.759422zM114.242338 235.418928c0 6.494337 4.941686 11.759422 11.037118 11.759422H335.72051c6.095432 0 11.037118-5.265085 11.037118-11.759422s-4.941686-11.759422-11.037118-11.759422H125.279456c-6.095432 0-11.037118 5.265085-11.037118 11.759422z"/></g></g></svg>